# xmcd
#
# Track frame offsets:
#	150
#	22639
#	45671
#	68539
#	101591
#	133086
#	155704
#	177472
#	200335
#	230983
#
# Disc length: 3420 seconds
#
# Revision: 1966146
# Processed by: cddbd v1.5.2PL0 Copyright (c) Steve Scherf et al.
# Submitted via: EZCDAudioConverter 8.0.2.1
#
DISCID=840d5a0a
DTITLE=Khánh Linh, Tấn Minh - st. Phạm Duy. Ngày Đó Chúng Mình
DYEAR=2011
DGENRE=Miscellaneous
TTITLE0=Tấn Minh - Cây đàn bỏ quên
TTITLE1=Khánh Linh, Tấn Minh - Ngày Đó Chúng Mình
TTITLE2=Khánh Linh - Đưa em tìm động hoa vàng
TTITLE3=Tấn Minh - Nghìn trùng xa cách
TTITLE4=Tấn Minh - Khối tình Trương Chi
TTITLE5=Khánh Linh - Ngày xưa Hoàng Thị
TTITLE6=Khánh Linh - Vết sầu
TTITLE7=Tấn Minh - Kiếp nào có yêu nhau
TTITLE8=Tấn Minh - Nha Trang ngày về
TTITLE9=Khánh Linh, Tấn Minh - Nụ Tầm Xuân
EXTD=
EXTT0=
EXTT1=
EXTT2=
EXTT3=
EXTT4=
EXTT5=
EXTT6=
EXTT7=
EXTT8=
EXTT9=
PLAYORDER=
